<svg xmlns="http://www.w3.org/2000/svg" height="24px" viewBox="0 -960 960 960" width="24px" fill="#ffdb70"><path d="M480-80q-83 0-156-31.5T197-197q-54-54-85.5-127T80-480q0-83 31.5-156T197-763q54-54 127-85.5T480-880q83 0 156 31.5T763-763q54 54 85.5 127T880-480q0 83-31.5 156T763-197q-54 54-127 85.5T480-80Zm0-80q134 0 227-93t93-227q0-7-.5-14t-1.5-14q-5 29-20 54.5T741-406q11-26 15-53.5t4-55.5q0-120-84-204t-204-84q-29 0-55.5 4T363-784q-22-21-47.5-36T261-840q-7-1-14-1.5t-14-.5q-134 0-227 93T-7-522q0 134 93 227t227 93q120 0 204-84t84-204q0-29-4-55.5T582-599q32-22 57.5-37t54.5-20q-1 7-1.5 14t-.5 14q0 134 93 227t227 93Z"/></svg>